<svg xmlns="http://www.w3.org/2000/svg" width="430" height="430" style="width:100%;height:100%;transform:translate3d(0,0,0);content-visibility:visible" viewBox="0 0 430 430"><defs><clipPath id="p"><path d="M0 0h430v430H0z"/></clipPath><clipPath id="J"><path d="M0 0h430v430H0z"/></clipPath><clipPath id="I"><path d="M0 0h430v430H0z"/></clipPath><clipPath id="H"><path d="M0 0h430v430H0z"/></clipPath><clipPath id="D"><path d="M0 0h430v430H0z"/></clipPath><clipPath id="z"><path d="M0 0h430v430H0z"/></clipPath><clipPath id="y"><path d="M0 0h430v430H0z"/></clipPath><clipPath id="x"><path d="M0 0h430v430H0z"/></clipPath><clipPath id="v"><path d="M0 0h430v430H0z"/></clipPath><clipPath id="t"><path d="M0 0h430v430H0z"/></clipPath><clipPath id="s"><path d="M0 0h430v430H0z"/></clipPath><clipPath id="r"><path d="M0 0h430v430H0z"/></clipPath><clipPath id="q"><path d="M0 0h430v430H0z"/></clipPath><mask id="K" mask-type="alpha"><use xmlns:ns1="http://www.w3.org/1999/xlink" ns1:href="#a"/></mask><mask id="G" mask-type="alpha"><g filter="url(#b)"><path fill="#fff" d="M0 0h430v430H0z" opacity="0"/><use xmlns:ns2="http://www.w3.org/1999/xlink" ns2:href="#c"/></g></mask><mask id="F" mask-type="alpha"><g filter="url(#d)"><path fill="#fff" d="M0 0h430v430H0z" opacity="0"/><use xmlns:ns3="http://www.w3.org/1999/xlink" ns3:href="#e"/></g></mask><mask id="E" mask-type="alpha"><g filter="url(#f)"><path fill="#fff" d="M0 0h430v430H0z" opacity="0"/><use xmlns:ns4="http://www.w3.org/1999/xlink" ns4:href="#g"/></g></mask><mask id="C" mask-type="alpha"><g filter="url(#h)"><path fill="#fff" d="M0 0h430v430H0z" opacity="0"/><use xmlns:ns5="http://www.w3.org/1999/xlink" ns5:href="#i"/></g></mask><mask id="B" mask-type="alpha"><g filter="url(#j)"><path fill="#fff" d="M0 0h430v430H0z" opacity="0"/><use xmlns:ns6="http://www.w3.org/1999/xlink" ns6:href="#k"/></g></mask><mask id="A" mask-type="alpha"><g filter="url(#l)"><path fill="#fff" d="M0 0h430v430H0z" opacity="0"/><use xmlns:ns7="http://www.w3.org/1999/xlink" ns7:href="#m"/></g></mask><mask id="w" mask-type="alpha"><use xmlns:ns8="http://www.w3.org/1999/xlink" ns8:href="#n"/></mask><mask id="u" mask-type="alpha"><use xmlns:ns9="http://www.w3.org/1999/xlink" ns9:href="#o"/></mask><path id="a" style="display:none"/><path id="c" fill-opacity="0" stroke-linecap="round" stroke-linejoin="round" style="display:none"/><path id="g" fill-opacity="0" stroke-linecap="round" stroke-linejoin="round" style="display:none"/><path id="e" fill-opacity="0" stroke-linecap="round" stroke-linejoin="round" style="display:none"/><path id="i" style="display:none"/><path id="k" style="display:none"/><path id="m" style="display:none"/><filter id="b" width="100%" height="100%" x="0%" y="0%" filterUnits="objectBoundingBox"><feComponentTransfer in="SourceGraphic"><feFuncA tableValues="1.0 0.0" type="table"/></feComponentTransfer></filter><filter id="d" width="100%" height="100%" x="0%" y="0%" filterUnits="objectBoundingBox"><feComponentTransfer in="SourceGraphic"><feFuncA tableValues="1.0 0.0" type="table"/></feComponentTransfer></filter><filter id="f" width="100%" height="100%" x="0%" y="0%" filterUnits="objectBoundingBox"><feComponentTransfer in="SourceGraphic"><feFuncA tableValues="1.0 0.0" type="table"/></feComponentTransfer></filter><filter id="h" width="100%" height="100%" x="0%" y="0%" filterUnits="objectBoundingBox"><feComponentTransfer in="SourceGraphic"><feFuncA tableValues="1.0 0.0" type="table"/></feComponentTransfer></filter><filter id="j" width="100%" height="100%" x="0%" y="0%" filterUnits="objectBoundingBox"><feComponentTransfer in="SourceGraphic"><feFuncA tableValues="1.0 0.0" type="table"/></feComponentTransfer></filter><filter id="l" width="100%" height="100%" x="0%" y="0%" filterUnits="objectBoundingBox"><feComponentTransfer in="SourceGraphic"><feFuncA tableValues="1.0 0.0" type="table"/></feComponentTransfer></filter><g id="n" style="display:none"><path/><path fill-opacity="0" stroke-linecap="round" stroke-linejoin="round" class="primary"/></g><g id="o" style="display:none"><path fill-opacity="0" stroke-linecap="round" stroke-linejoin="round" class="primary"/><path class="primary"/></g></defs><g clip-path="url(#p)"><g clip-path="url(#q)" style="display:none"><g style="display:none"><path class="secondary"/><path class="secondary" style="mix-blend-mode:multiply"/></g><g style="display:none"><path class="secondary"/><path class="secondary" style="mix-blend-mode:multiply"/></g><g style="display:none"><path class="secondary"/><path class="secondary" style="mix-blend-mode:multiply"/></g><path fill="none" class="primary" style="display:none"/><path class="secondary" style="display:none"/><path fill="none" class="primary" style="display:none"/></g><g clip-path="url(#r)" style="display:none"><g style="display:none"><path class="secondary"/><path class="secondary" style="mix-blend-mode:multiply"/></g><g style="display:none"><path class="secondary"/><path class="secondary" style="mix-blend-mode:multiply"/></g><path class="secondary" style="display:none"/><path fill="none" class="primary" style="display:none"/><path fill="none" class="primary" style="display:none"/><path fill="none" class="primary" style="display:none"/></g><g clip-path="url(#s)" style="display:none"><g style="display:none"><path class="secondary"/><path class="secondary" style="mix-blend-mode:multiply"/></g><path fill="none" class="primary" style="display:none"/><g style="display:none"><path class="quaternary"/><path class="quaternary" style="mix-blend-mode:multiply"/></g><path fill="none" class="primary" style="display:none"/></g><g clip-path="url(#t)" style="display:none"><g mask="url(#u)" style="display:none"><path class="secondary"/><path class="secondary" style="mix-blend-mode:multiply"/></g><path fill="none" class="primary" style="display:none"/></g><g clip-path="url(#v)" style="display:none"><g mask="url(#w)" style="display:none"><path class="secondary"/><path class="secondary" style="mix-blend-mode:multiply"/></g><path fill="none" class="primary" style="display:none"/><path fill="none" class="primary" style="display:none"/></g><g clip-path="url(#x)" style="display:none"><g style="display:none"><path class="secondary"/><path class="secondary" style="mix-blend-mode:multiply"/></g><path fill="none" class="primary" style="display:none"/><path class="secondary" style="display:none"/><path class="senary" style="display:none"/><path fill="none" class="primary" style="display:none"/></g><g clip-path="url(#y)" style="display:none"><g style="display:none"><path class="secondary"/><path class="secondary" style="mix-blend-mode:multiply"/></g><path fill="none" class="primary" style="display:none"/><g style="display:none"><path class="tertiary"/><path class="tertiary" style="mix-blend-mode:multiply"/></g><path fill="none" class="primary" style="display:none"/><g style="display:none"><path class="tertiary"/><path class="tertiary" style="mix-blend-mode:multiply"/></g><path fill="none" class="primary" style="display:none"/></g><g clip-path="url(#z)" style="display:none"><g mask="url(#A)" style="display:none"><path class="secondary"/><path class="secondary" style="mix-blend-mode:multiply"/></g><g mask="url(#B)" style="display:none"><path fill="none" class="primary"/></g><g mask="url(#C)" style="display:none"><path fill="none" class="primary"/></g><path fill="none" class="quinary" style="display:none"/></g><g clip-path="url(#D)" style="display:none"><g mask="url(#E)" style="display:none"><path class="secondary"/><path class="secondary" style="mix-blend-mode:multiply"/></g><g mask="url(#F)" style="display:none"><path fill="none" class="primary"/></g><g mask="url(#G)" style="display:none"><path fill="none" class="primary"/></g><path fill="none" class="quinary" style="display:none"/></g><g clip-path="url(#H)" style="display:none"><g style="display:none"><path class="secondary"/><path class="secondary" style="mix-blend-mode:multiply"/></g><path fill="none" class="primary" style="display:none"/><path fill="none" class="primary" style="display:none"/></g><g clip-path="url(#I)" style="display:block"><g fill="#F18AA8" style="display:block"><path d="M362.026 84.631c-17.106-16.911-38.83-27.259-62.822-29.923-31.072-3.451-61.571 6.615-84.21 27.674-19.681-18.303-45.236-28.344-72.323-28.344-28.201 0-54.722 10.875-74.706 30.59C47.997 104.327 37 130.524 37 158.391c0 27.867 10.997 54.063 30.964 73.761l144.565 142.769a3.51 3.51 0 0 0 2.468 1.009c.926 0 1.814-.363 2.468-1.009l144.559-142.769C381.998 212.425 393 186.235 393 158.411c0-27.852-11.01-54.044-30.974-73.78z" class="secondary"/><path d="M89.233-132.644C69.59-150.708 43.71-160.987 16.91-160.987c-28.201 0-54.721 10.874-74.705 30.589-19.968 19.699-30.966 45.896-30.966 73.763 0 27.867 10.998 54.063 30.965 73.761L84.3 157.457c4.241 4.189 4.936 3.448 4.936 3.448l-.003-293.549z" class="secondary" opacity=".5" style="mix-blend-mode:multiply" transform="translate(125.76 215.026)"/></g><path fill="none" stroke="#121330" stroke-linecap="round" stroke-linejoin="round" stroke-width="7" d="M-71.307-133.185c-20.152.741-37.451 6.409-53.522 22.11-14.326 13.997-24.247 34.003-22.976 55.378" class="primary" style="display:block" transform="translate(215 215)"/><path fill="none" stroke="#121330" stroke-linecap="round" stroke-linejoin="round" stroke-width="7" d="M362.03 84.63c-17.11-16.91-38.83-27.26-62.83-29.92-31.07-3.45-61.57 6.61-84.21 27.67-19.68-18.3-45.23-28.34-72.32-28.34-28.2 0-54.72 10.87-74.71 30.59C48 104.33 37 130.52 37 158.39c0 27.87 11 54.06 30.96 73.76l144.57 142.77c.65.65 1.54 1.01 2.47 1.01.92 0 1.81-.36 2.46-1.01l144.56-142.77C382 212.42 393 186.24 393 158.41c0-27.85-11.01-54.04-30.97-73.78z" class="primary" style="display:block"/></g><g clip-path="url(#J)" style="display:none"><path class="secondary" style="display:none"/><g mask="url(#K)" style="mix-blend-mode:multiply;display:none"><path class="secondary"/></g><path fill="none" class="primary" style="display:none"/><path fill="none" class="primary" style="display:none"/></g></g></svg>